<?xml version="1.0" encoding="UTF-8"?>
<svg id="Layer_1" data-name="Layer 1" xmlns="http://www.w3.org/2000/svg" viewBox="0 0 257.71 309.21">
  <defs>
    <style>
      .cls-1 {
        letter-spacing: 0em;
      }

      .cls-2 {
        letter-spacing: 0em;
      }

      .cls-3 {
        fill: none;
        stroke: #231f20;
        stroke-miterlimit: 10;
        stroke-width: 10px;
      }

      .cls-4 {
        letter-spacing: 0em;
      }

      .cls-5 {
        font-size: 25px;
      }

      .cls-5, .cls-6 {
        font-family: Audiowide-Regular, Audiowide;
      }

      .cls-5, .cls-6, .cls-7 {
        fill: #231f20;
      }

      .cls-6 {
        font-size: 50px;
      }

      .cls-8 {
        letter-spacing: 0em;
      }

      .cls-9 {
        letter-spacing: 0em;
      }
    </style>
  </defs>
  <text class="cls-6" transform="translate(38.78 192.26)"><tspan x="0" y="0">FID€O</tspan></text>
  <g>
    <line class="cls-3" x1="114" y1="72.27" x2="191.72" y2="3.75"/>
    <line class="cls-3" x1="138.5" y1="122.32" x2="190.03" y2="5.24"/>
    <line class="cls-3" x1="67.11" y1="41.12" x2="189.92" y2="5.33"/>
    <line class="cls-3" x1="114" y1="72.27" x2="67.11" y2="41.12"/>
    <line class="cls-3" x1="138.5" y1="122.32" x2="114" y2="72.27"/>
  </g>
  <text class="cls-5" transform="translate(0 302.08)"><tspan class="cls-2" x="0" y="0">M</tspan><tspan x="23.97" y="0">o</tspan><tspan class="cls-8" x="41.03" y="0">r</tspan><tspan x="54.61" y="0">e</tspan><tspan class="cls-1" x="70.95" y="0"> </tspan><tspan x="78.88" y="0">than</tspan><tspan class="cls-9" x="144.29" y="0"> </tspan><tspan class="cls-4" x="152.29" y="0">a guess</tspan></text>
  <g>
    <circle class="cls-7" cx="45.08" cy="237.99" r="6.38"/>
    <circle class="cls-7" cx="78.82" cy="237.99" r="6.38"/>
    <circle class="cls-7" cx="112.55" cy="237.99" r="6.38"/>
    <circle class="cls-7" cx="146.28" cy="237.99" r="6.38"/>
    <circle class="cls-7" cx="180.01" cy="237.99" r="6.38"/>
    <circle class="cls-7" cx="213.74" cy="237.99" r="6.38"/>
  </g>
</svg>