<?xml version="1.0" encoding="UTF-8"?>
<svg id="Layer_1" data-name="Layer 1" xmlns="http://www.w3.org/2000/svg" viewBox="0 0 258.71 309.71">
  <defs>
    <style>
      .cls-1 {
        letter-spacing: 0em;
      }

      .cls-2 {
        fill: #231f20;
        stroke: #fff;
        stroke-width: 10px;
      }

      .cls-2, .cls-3, .cls-4, .cls-5 {
        stroke-miterlimit: 10;
      }

      .cls-3, .cls-4, .cls-5 {
        fill: #fff;
        stroke: #231f20;
      }

      .cls-6 {
        letter-spacing: 0em;
      }

      .cls-7 {
        letter-spacing: 0em;
      }

      .cls-4 {
        font-size: 25px;
      }

      .cls-4, .cls-5 {
        font-family: Audiowide-Regular, Audiowide;
      }

      .cls-8 {
        letter-spacing: 0em;
      }

      .cls-9 {
        letter-spacing: 0em;
      }

      .cls-5 {
        font-size: 50px;
        stroke-width: 2px;
      }
    </style>
  </defs>
  <text class="cls-5" transform="translate(39.28 192.26)"><tspan x="0" y="0">FID€O</tspan></text>
  <g>
    <line class="cls-2" x1="114.5" y1="72.27" x2="192.22" y2="3.75"/>
    <line class="cls-2" x1="139" y1="122.32" x2="190.53" y2="5.24"/>
    <line class="cls-2" x1="67.61" y1="41.12" x2="190.42" y2="5.33"/>
    <line class="cls-2" x1="114.5" y1="72.27" x2="67.61" y2="41.12"/>
    <line class="cls-2" x1="139" y1="122.32" x2="114.5" y2="72.27"/>
  </g>
  <text class="cls-4" transform="translate(.5 302.08)"><tspan class="cls-6" x="0" y="0">M</tspan><tspan x="23.97" y="0">o</tspan><tspan class="cls-8" x="41.03" y="0">r</tspan><tspan x="54.61" y="0">e</tspan><tspan class="cls-1" x="70.95" y="0"> </tspan><tspan x="78.88" y="0">than</tspan><tspan class="cls-9" x="144.29" y="0"> </tspan><tspan class="cls-7" x="152.29" y="0">a guess</tspan></text>
  <g>
    <circle class="cls-3" cx="45.58" cy="237.99" r="6.38"/>
    <circle class="cls-3" cx="79.32" cy="237.99" r="6.38"/>
    <circle class="cls-3" cx="113.05" cy="237.99" r="6.38"/>
    <circle class="cls-3" cx="146.78" cy="237.99" r="6.38"/>
    <circle class="cls-3" cx="180.51" cy="237.99" r="6.38"/>
    <circle class="cls-3" cx="214.24" cy="237.99" r="6.38"/>
  </g>
</svg>